<mxfile host="Electron" modified="2023-08-14T16:01:02.987Z" agent="Mozilla/5.0 (Macintosh; Intel Mac OS X 10_15_7) AppleWebKit/537.36 (KHTML, like Gecko) draw.io/21.6.8 Chrome/114.0.5735.289 Electron/25.5.0 Safari/537.36" etag="14RbDjCN51zvh7Tpy_MF" version="21.6.8" type="device">
  <diagram id="srBAZhQ2KLluDyzof_pd" name="Page-1">
    <mxGraphModel dx="584" dy="854" grid="1" gridSize="10" guides="1" tooltips="1" connect="0" arrows="0" fold="1" page="1" pageScale="1" pageWidth="850" pageHeight="1100" math="0" shadow="0">
      <root>
        <mxCell id="0" />
        <mxCell id="1" parent="0" />
        <mxCell id="NfkfM8riDZQN8jS3ffes-4" value="" style="rounded=0;whiteSpace=wrap;html=1;fillColor=none;dashed=1;" parent="1" vertex="1">
          <mxGeometry x="1170" y="170" width="139.75" height="150" as="geometry" />
        </mxCell>
        <mxCell id="EUu6mg04dgHktvgB9pTH-5" value="" style="endArrow=none;html=1;rounded=0;fontSize=16;strokeWidth=1;" parent="1" edge="1">
          <mxGeometry width="50" height="50" relative="1" as="geometry">
            <mxPoint x="1199.87" y="629.5799999999999" as="sourcePoint" />
            <mxPoint x="1199.87" y="629.5799999999999" as="targetPoint" />
          </mxGeometry>
        </mxCell>
        <mxCell id="EUu6mg04dgHktvgB9pTH-10" value="" style="endArrow=none;html=1;rounded=0;" parent="1" edge="1">
          <mxGeometry width="50" height="50" relative="1" as="geometry">
            <mxPoint x="1240" y="560.25" as="sourcePoint" />
            <mxPoint x="1180" y="660.25" as="targetPoint" />
            <Array as="points">
              <mxPoint x="1240" y="680.25" />
              <mxPoint x="1180" y="680.25" />
            </Array>
          </mxGeometry>
        </mxCell>
        <mxCell id="EUu6mg04dgHktvgB9pTH-11" value="" style="endArrow=none;html=1;rounded=0;" parent="1" edge="1">
          <mxGeometry width="50" height="50" relative="1" as="geometry">
            <mxPoint x="1180" y="620.25" as="sourcePoint" />
            <mxPoint x="1120" y="720.25" as="targetPoint" />
            <Array as="points">
              <mxPoint x="1180" y="600.25" />
              <mxPoint x="1120" y="600.25" />
            </Array>
          </mxGeometry>
        </mxCell>
        <mxCell id="EUu6mg04dgHktvgB9pTH-15" value="" style="endArrow=classic;html=1;rounded=0;strokeWidth=1;" parent="1" edge="1">
          <mxGeometry width="50" height="50" relative="1" as="geometry">
            <mxPoint x="1050" y="599.95" as="sourcePoint" />
            <mxPoint x="1050" y="569.95" as="targetPoint" />
            <Array as="points" />
          </mxGeometry>
        </mxCell>
        <mxCell id="EUu6mg04dgHktvgB9pTH-16" value="" style="endArrow=none;html=1;rounded=0;" parent="1" edge="1">
          <mxGeometry width="50" height="50" relative="1" as="geometry">
            <mxPoint x="1280" y="559.76" as="sourcePoint" />
            <mxPoint x="1560" y="720" as="targetPoint" />
            <Array as="points">
              <mxPoint x="1060" y="560.25" />
              <mxPoint x="1060" y="720.25" />
            </Array>
          </mxGeometry>
        </mxCell>
        <mxCell id="EUu6mg04dgHktvgB9pTH-22" value="" style="endArrow=classic;html=1;rounded=0;strokeWidth=1;startArrow=classic;startFill=1;" parent="1" edge="1">
          <mxGeometry width="50" height="50" relative="1" as="geometry">
            <mxPoint x="1320" y="730.2499999999999" as="sourcePoint" />
            <mxPoint x="1360" y="730.41" as="targetPoint" />
            <Array as="points" />
          </mxGeometry>
        </mxCell>
        <mxCell id="EUu6mg04dgHktvgB9pTH-23" value="" style="endArrow=classic;html=1;rounded=0;strokeWidth=1;startArrow=classic;startFill=1;" parent="1" edge="1">
          <mxGeometry width="50" height="50" relative="1" as="geometry">
            <mxPoint x="1190" y="690.25" as="sourcePoint" />
            <mxPoint x="1230" y="690.25" as="targetPoint" />
            <Array as="points" />
          </mxGeometry>
        </mxCell>
        <mxCell id="EUu6mg04dgHktvgB9pTH-32" value="" style="endArrow=none;html=1;rounded=0;" parent="1" edge="1">
          <mxGeometry width="50" height="50" relative="1" as="geometry">
            <mxPoint x="1280" y="520.5" as="sourcePoint" />
            <mxPoint x="1280" y="520.5" as="targetPoint" />
            <Array as="points">
              <mxPoint x="1460" y="519.76" />
              <mxPoint x="1460" y="599.76" />
              <mxPoint x="1280" y="600.5" />
            </Array>
          </mxGeometry>
        </mxCell>
        <mxCell id="EUu6mg04dgHktvgB9pTH-34" value="" style="triangle;whiteSpace=wrap;html=1;fontSize=16;strokeWidth=1;rotation=0;" parent="1" vertex="1">
          <mxGeometry x="1400" y="588.07" width="20" height="25" as="geometry" />
        </mxCell>
        <mxCell id="EUu6mg04dgHktvgB9pTH-35" value="" style="triangle;whiteSpace=wrap;html=1;fontSize=16;strokeWidth=1;rotation=-180;" parent="1" vertex="1">
          <mxGeometry x="1420.4999999999998" y="588.07" width="20" height="25" as="geometry" />
        </mxCell>
        <mxCell id="EUu6mg04dgHktvgB9pTH-36" value="" style="ellipse;whiteSpace=wrap;html=1;fontSize=16;strokeWidth=1;" parent="1" vertex="1">
          <mxGeometry x="1400" y="500.2499999999999" width="40" height="40" as="geometry" />
        </mxCell>
        <mxCell id="EUu6mg04dgHktvgB9pTH-37" value="" style="triangle;whiteSpace=wrap;html=1;fontSize=16;strokeWidth=1;rotation=0;fillColor=#000000;" parent="1" vertex="1">
          <mxGeometry x="1420" y="500.25" width="20" height="40" as="geometry" />
        </mxCell>
        <mxCell id="EUu6mg04dgHktvgB9pTH-39" value="" style="endArrow=classic;html=1;rounded=0;strokeWidth=1;" parent="1" edge="1">
          <mxGeometry width="50" height="50" relative="1" as="geometry">
            <mxPoint x="1400" y="190" as="sourcePoint" />
            <mxPoint x="1440" y="190" as="targetPoint" />
            <Array as="points" />
          </mxGeometry>
        </mxCell>
        <mxCell id="EUu6mg04dgHktvgB9pTH-40" value="" style="endArrow=none;html=1;rounded=0;" parent="1" edge="1">
          <mxGeometry width="50" height="50" relative="1" as="geometry">
            <mxPoint x="1520" y="200" as="sourcePoint" />
            <mxPoint x="1560" y="280" as="targetPoint" />
            <Array as="points">
              <mxPoint x="1200" y="200" />
              <mxPoint x="1200" y="280" />
            </Array>
          </mxGeometry>
        </mxCell>
        <mxCell id="EUu6mg04dgHktvgB9pTH-41" value="" style="ellipse;whiteSpace=wrap;html=1;fontSize=16;strokeWidth=1;" parent="1" vertex="1">
          <mxGeometry x="1321" y="180" width="40" height="40" as="geometry" />
        </mxCell>
        <mxCell id="EUu6mg04dgHktvgB9pTH-42" value="" style="triangle;whiteSpace=wrap;html=1;fontSize=16;strokeWidth=1;rotation=0;fillColor=#000000;" parent="1" vertex="1">
          <mxGeometry x="1340" y="180" width="20" height="40" as="geometry" />
        </mxCell>
        <mxCell id="EUu6mg04dgHktvgB9pTH-43" value="" style="endArrow=classic;html=1;rounded=0;strokeWidth=1;" parent="1" edge="1">
          <mxGeometry width="50" height="50" relative="1" as="geometry">
            <mxPoint x="1361" y="610.25" as="sourcePoint" />
            <mxPoint x="1320" y="610.25" as="targetPoint" />
            <Array as="points" />
          </mxGeometry>
        </mxCell>
        <mxCell id="EUu6mg04dgHktvgB9pTH-49" value="P1" style="text;html=1;align=center;verticalAlign=middle;resizable=0;points=[];autosize=1;strokeColor=none;fillColor=none;" parent="1" vertex="1">
          <mxGeometry x="1326" y="220" width="30" height="20" as="geometry" />
        </mxCell>
        <mxCell id="EUu6mg04dgHktvgB9pTH-50" value="" style="endArrow=none;html=1;rounded=0;entryX=0.993;entryY=0.507;entryDx=0;entryDy=0;entryPerimeter=0;" parent="1" edge="1">
          <mxGeometry width="50" height="50" relative="1" as="geometry">
            <mxPoint x="1420" y="590.0799999999999" as="sourcePoint" />
            <mxPoint x="1419.8600000000001" y="600.5050000000001" as="targetPoint" />
          </mxGeometry>
        </mxCell>
        <mxCell id="EUu6mg04dgHktvgB9pTH-55" value="Reversible connection" style="text;html=1;align=center;verticalAlign=middle;resizable=0;points=[];autosize=1;strokeColor=none;fillColor=none;" parent="1" vertex="1">
          <mxGeometry x="1300" y="619.76" width="140" height="30" as="geometry" />
        </mxCell>
        <mxCell id="EUu6mg04dgHktvgB9pTH-67" value="" style="ellipse;whiteSpace=wrap;html=1;fontSize=16;strokeWidth=1;" parent="1" vertex="1">
          <mxGeometry x="1160" y="539.2499999999999" width="40" height="40" as="geometry" />
        </mxCell>
        <mxCell id="EUu6mg04dgHktvgB9pTH-68" value="" style="triangle;whiteSpace=wrap;html=1;fontSize=16;strokeWidth=1;rotation=0;fillColor=#000000;" parent="1" vertex="1">
          <mxGeometry x="1180" y="540.25" width="18" height="40" as="geometry" />
        </mxCell>
        <mxCell id="EUu6mg04dgHktvgB9pTH-69" value="" style="rounded=0;whiteSpace=wrap;html=1;fillColor=none;dashed=1;" parent="1" vertex="1">
          <mxGeometry x="1480" y="80" width="199.87" height="770" as="geometry" />
        </mxCell>
        <mxCell id="EUu6mg04dgHktvgB9pTH-72" value="" style="triangle;whiteSpace=wrap;html=1;fillColor=none;rotation=-180;strokeColor=#3333FF;" parent="1" vertex="1">
          <mxGeometry x="1470" y="94.5" width="10" height="10.25" as="geometry" />
        </mxCell>
        <mxCell id="EUu6mg04dgHktvgB9pTH-73" value="PI" style="whiteSpace=wrap;html=1;aspect=fixed;fillColor=none;strokeColor=#3333FF;fontColor=#3333FF;" parent="1" vertex="1">
          <mxGeometry x="1320" y="79.63" width="40" height="40" as="geometry" />
        </mxCell>
        <mxCell id="EUu6mg04dgHktvgB9pTH-74" value="Min of&lt;br&gt;user pressure heads" style="endArrow=none;html=1;rounded=0;entryX=0.85;entryY=0.561;entryDx=0;entryDy=0;entryPerimeter=0;exitX=0.05;exitY=0.561;exitDx=0;exitDy=0;exitPerimeter=0;startArrow=none;strokeColor=#3333FF;fontColor=#3333FF;" parent="1" source="EUu6mg04dgHktvgB9pTH-75" target="EUu6mg04dgHktvgB9pTH-72" edge="1">
          <mxGeometry x="-0.0933" y="-21" width="50" height="50" relative="1" as="geometry">
            <mxPoint x="1330" y="300" as="sourcePoint" />
            <mxPoint x="1380" y="250" as="targetPoint" />
            <mxPoint as="offset" />
          </mxGeometry>
        </mxCell>
        <mxCell id="EUu6mg04dgHktvgB9pTH-75" value="" style="triangle;whiteSpace=wrap;html=1;fillColor=none;rotation=-180;strokeColor=#3333FF;fontColor=#3333FF;" parent="1" vertex="1">
          <mxGeometry x="1361" y="94.5" width="10" height="10.25" as="geometry" />
        </mxCell>
        <mxCell id="EUu6mg04dgHktvgB9pTH-76" value="" style="endArrow=none;html=1;rounded=0;entryX=0.85;entryY=0.561;entryDx=0;entryDy=0;entryPerimeter=0;exitX=1.008;exitY=0.483;exitDx=0;exitDy=0;exitPerimeter=0;strokeColor=#3333FF;fontColor=#3333FF;" parent="1" source="EUu6mg04dgHktvgB9pTH-73" target="EUu6mg04dgHktvgB9pTH-75" edge="1">
          <mxGeometry width="50" height="50" relative="1" as="geometry">
            <mxPoint x="1441.3200000000002" y="99.32000000000005" as="sourcePoint" />
            <mxPoint x="1511.5" y="98.99974999999995" as="targetPoint" />
          </mxGeometry>
        </mxCell>
        <mxCell id="EUu6mg04dgHktvgB9pTH-77" value="" style="triangle;whiteSpace=wrap;html=1;fillColor=none;rotation=90;strokeColor=#3333FF;fontColor=#3333FF;" parent="1" vertex="1">
          <mxGeometry x="1335" y="119.63" width="10" height="10.25" as="geometry" />
        </mxCell>
        <mxCell id="EUu6mg04dgHktvgB9pTH-78" value="&lt;i&gt;y&lt;/i&gt;" style="endArrow=none;html=1;rounded=0;exitX=0.038;exitY=0.5;exitDx=0;exitDy=0;exitPerimeter=0;startArrow=none;strokeColor=#3333FF;fontColor=#3333FF;" parent="1" source="EUu6mg04dgHktvgB9pTH-79" edge="1">
          <mxGeometry x="-0.5074" y="-10" width="50" height="50" relative="1" as="geometry">
            <mxPoint x="1340" y="310" as="sourcePoint" />
            <mxPoint x="1340" y="130" as="targetPoint" />
            <mxPoint as="offset" />
          </mxGeometry>
        </mxCell>
        <mxCell id="EUu6mg04dgHktvgB9pTH-79" value="" style="triangle;whiteSpace=wrap;html=1;fillColor=none;rotation=90;strokeColor=#3333FF;fontColor=#3333FF;" parent="1" vertex="1">
          <mxGeometry x="1335" y="169.75" width="10" height="10.25" as="geometry" />
        </mxCell>
        <mxCell id="EUu6mg04dgHktvgB9pTH-81" value="" style="whiteSpace=wrap;html=1;aspect=fixed;fillColor=none;strokeColor=#3333FF;fontColor=#3333FF;" parent="1" vertex="1">
          <mxGeometry x="1120" y="360.25" width="120" height="120" as="geometry" />
        </mxCell>
        <mxCell id="EUu6mg04dgHktvgB9pTH-82" value="" style="triangle;whiteSpace=wrap;html=1;fillColor=none;rotation=0;strokeColor=#3333FF;fontColor=#3333FF;" parent="1" vertex="1">
          <mxGeometry x="1110" y="405.25" width="10" height="10.25" as="geometry" />
        </mxCell>
        <mxCell id="EUu6mg04dgHktvgB9pTH-83" value="" style="triangle;whiteSpace=wrap;html=1;fillColor=none;rotation=0;strokeColor=#3333FF;fontColor=#3333FF;" parent="1" vertex="1">
          <mxGeometry x="1110" y="424.74" width="10" height="10.25" as="geometry" />
        </mxCell>
        <mxCell id="EUu6mg04dgHktvgB9pTH-84" value="" style="triangle;whiteSpace=wrap;html=1;fillColor=none;rotation=0;strokeColor=#3333FF;fontColor=#3333FF;" parent="1" vertex="1">
          <mxGeometry x="1110" y="444.74" width="10" height="10.25" as="geometry" />
        </mxCell>
        <mxCell id="EUu6mg04dgHktvgB9pTH-85" value="" style="triangle;whiteSpace=wrap;html=1;fillColor=none;rotation=0;strokeColor=#3333FF;fontColor=#3333FF;" parent="1" vertex="1">
          <mxGeometry x="1160" y="385" width="10" height="10.25" as="geometry" />
        </mxCell>
        <mxCell id="EUu6mg04dgHktvgB9pTH-86" value="" style="triangle;whiteSpace=wrap;html=1;fillColor=none;rotation=0;strokeColor=#3333FF;fontColor=#3333FF;" parent="1" vertex="1">
          <mxGeometry x="1240" y="405.25" width="10" height="10.25" as="geometry" />
        </mxCell>
        <mxCell id="EUu6mg04dgHktvgB9pTH-87" value="" style="triangle;whiteSpace=wrap;html=1;fillColor=none;rotation=0;strokeColor=#3333FF;fontColor=#3333FF;" parent="1" vertex="1">
          <mxGeometry x="1240" y="465" width="10" height="10.25" as="geometry" />
        </mxCell>
        <mxCell id="EUu6mg04dgHktvgB9pTH-89" value="Command for tank:&lt;br&gt;&lt;div style=&quot;text-align: left;&quot;&gt;&lt;span style=&quot;background-color: initial;&quot;&gt;- Charge&lt;/span&gt;&lt;/div&gt;&lt;div style=&quot;text-align: left;&quot;&gt;&lt;span style=&quot;background-color: initial;&quot;&gt;- No Command&lt;/span&gt;&lt;/div&gt;&lt;div style=&quot;text-align: left;&quot;&gt;&lt;span style=&quot;background-color: initial;&quot;&gt;- Discharge&lt;/span&gt;&lt;/div&gt;" style="rounded=0;whiteSpace=wrap;html=1;strokeColor=#3333FF;fontColor=#3333FF;fillColor=none;" parent="1" vertex="1">
          <mxGeometry x="920" y="350" width="140" height="65.5" as="geometry" />
        </mxCell>
        <mxCell id="EUu6mg04dgHktvgB9pTH-90" value="Command for chiller&lt;br&gt;&lt;div style=&quot;text-align: left;&quot;&gt;&lt;span style=&quot;background-color: initial;&quot;&gt;- Enable&lt;/span&gt;&lt;/div&gt;&lt;div style=&quot;text-align: left;&quot;&gt;&lt;span style=&quot;background-color: initial;&quot;&gt;- Disable&lt;/span&gt;&lt;/div&gt;" style="rounded=0;whiteSpace=wrap;html=1;strokeColor=#3333FF;fontColor=#3333FF;fillColor=none;" parent="1" vertex="1">
          <mxGeometry x="920" y="425" width="140" height="45" as="geometry" />
        </mxCell>
        <mxCell id="EUu6mg04dgHktvgB9pTH-91" value="" style="triangle;whiteSpace=wrap;html=1;fillColor=none;rotation=0;strokeColor=#3333FF;fontColor=#3333FF;" parent="1" vertex="1">
          <mxGeometry x="1060" y="424.74" width="10" height="10.25" as="geometry" />
        </mxCell>
        <mxCell id="EUu6mg04dgHktvgB9pTH-94" value="" style="triangle;whiteSpace=wrap;html=1;fillColor=none;rotation=-180;strokeColor=#3333FF;" parent="1" vertex="1">
          <mxGeometry x="1149" y="635.63" width="10" height="10.25" as="geometry" />
        </mxCell>
        <mxCell id="EUu6mg04dgHktvgB9pTH-95" value="" style="endArrow=none;html=1;rounded=0;strokeColor=#3333FF;fontColor=#3333FF;exitX=0.95;exitY=0.525;exitDx=0;exitDy=0;exitPerimeter=0;" parent="1" source="EUu6mg04dgHktvgB9pTH-94" edge="1">
          <mxGeometry width="50" height="50" relative="1" as="geometry">
            <mxPoint x="1140" y="650.25" as="sourcePoint" />
            <mxPoint x="1110" y="450.25" as="targetPoint" />
            <Array as="points">
              <mxPoint x="1100" y="640.25" />
              <mxPoint x="1100" y="450.25" />
            </Array>
          </mxGeometry>
        </mxCell>
        <mxCell id="EUu6mg04dgHktvgB9pTH-96" value="Max of&lt;br&gt;user valve position" style="text;html=1;strokeColor=none;fillColor=none;align=center;verticalAlign=middle;whiteSpace=wrap;rounded=0;fontColor=#3333FF;" parent="1" vertex="1">
          <mxGeometry x="1346.13" y="310.00000000000006" width="110" height="30" as="geometry" />
        </mxCell>
        <mxCell id="EUu6mg04dgHktvgB9pTH-97" value="Tank status" style="text;html=1;strokeColor=none;fillColor=none;align=center;verticalAlign=middle;whiteSpace=wrap;rounded=0;fontColor=#3333FF;" parent="1" vertex="1">
          <mxGeometry x="1107" y="625.58" width="60" height="30" as="geometry" />
        </mxCell>
        <mxCell id="EUu6mg04dgHktvgB9pTH-98" value="" style="triangle;whiteSpace=wrap;html=1;fillColor=none;rotation=-180;strokeColor=#3333FF;" parent="1" vertex="1">
          <mxGeometry x="1470" y="335.7499999999999" width="10" height="10.25" as="geometry" />
        </mxCell>
        <mxCell id="EUu6mg04dgHktvgB9pTH-99" value="" style="endArrow=none;html=1;rounded=0;strokeColor=#3333FF;fontColor=#3333FF;entryX=0.9;entryY=0.463;entryDx=0;entryDy=0;entryPerimeter=0;exitX=0;exitY=0.488;exitDx=0;exitDy=0;exitPerimeter=0;" parent="1" source="EUu6mg04dgHktvgB9pTH-85" target="EUu6mg04dgHktvgB9pTH-98" edge="1">
          <mxGeometry width="50" height="50" relative="1" as="geometry">
            <mxPoint x="1160" y="310" as="sourcePoint" />
            <mxPoint x="1190" y="700" as="targetPoint" />
            <Array as="points">
              <mxPoint x="1150" y="390" />
              <mxPoint x="1150" y="341" />
            </Array>
          </mxGeometry>
        </mxCell>
        <mxCell id="EUu6mg04dgHktvgB9pTH-100" value="" style="triangle;whiteSpace=wrap;html=1;fillColor=none;rotation=90;strokeColor=#3333FF;fontColor=#3333FF;" parent="1" vertex="1">
          <mxGeometry x="1415" y="490" width="10" height="10.25" as="geometry" />
        </mxCell>
        <mxCell id="EUu6mg04dgHktvgB9pTH-104" value="" style="endArrow=none;html=1;rounded=0;strokeColor=#3333FF;fontColor=#3333FF;exitX=0.078;exitY=0.5;exitDx=0;exitDy=0;exitPerimeter=0;entryX=1.075;entryY=0.538;entryDx=0;entryDy=0;entryPerimeter=0;" parent="1" source="EUu6mg04dgHktvgB9pTH-100" target="EUu6mg04dgHktvgB9pTH-86" edge="1">
          <mxGeometry width="50" height="50" relative="1" as="geometry">
            <mxPoint x="1140" y="540.25" as="sourcePoint" />
            <mxPoint x="1210" y="410.25" as="targetPoint" />
            <Array as="points">
              <mxPoint x="1420" y="410" />
            </Array>
          </mxGeometry>
        </mxCell>
        <mxCell id="EUu6mg04dgHktvgB9pTH-105" value="" style="triangle;whiteSpace=wrap;html=1;fillColor=none;rotation=90;strokeColor=#3333FF;fontColor=#3333FF;" parent="1" vertex="1">
          <mxGeometry x="1175" y="530" width="10" height="10.25" as="geometry" />
        </mxCell>
        <mxCell id="EUu6mg04dgHktvgB9pTH-106" value="" style="endArrow=none;html=1;rounded=0;strokeColor=#3333FF;fontColor=#3333FF;entryX=0.9;entryY=0.513;entryDx=0;entryDy=0;entryPerimeter=0;" parent="1" target="EUu6mg04dgHktvgB9pTH-87" edge="1">
          <mxGeometry width="50" height="50" relative="1" as="geometry">
            <mxPoint x="1180" y="530.25" as="sourcePoint" />
            <mxPoint x="1190" y="490.25" as="targetPoint" />
            <Array as="points">
              <mxPoint x="1180" y="500.25" />
              <mxPoint x="1260" y="500.25" />
              <mxPoint x="1260" y="470.25" />
            </Array>
          </mxGeometry>
        </mxCell>
        <mxCell id="EUu6mg04dgHktvgB9pTH-108" value="&lt;span style=&quot;border-color: var(--border-color); color: rgb(51, 51, 255); font-family: Helvetica; font-size: 12px; font-variant-ligatures: normal; font-variant-caps: normal; font-weight: 400; letter-spacing: normal; orphans: 2; text-indent: 0px; text-transform: none; widows: 2; word-spacing: 0px; -webkit-text-stroke-width: 0px; text-decoration-thickness: initial; text-decoration-style: initial; text-decoration-color: initial; text-align: left; background-color: rgb(255, 255, 255);&quot;&gt;&lt;font style=&quot;border-color: var(--border-color); font-size: 12px;&quot;&gt;&lt;i style=&quot;border-color: var(--border-color);&quot;&gt;ṁ&lt;/i&gt;&lt;span style=&quot;border-color: var(--border-color);&quot;&gt;&lt;sub&gt;chi&lt;/sub&gt;&lt;/span&gt;&lt;/font&gt;&lt;/span&gt;" style="text;whiteSpace=wrap;html=1;fontSize=12;fontFamily=Helvetica;fontColor=#3333FF;" parent="1" vertex="1">
          <mxGeometry x="1185" y="505.25" width="20" height="20" as="geometry" />
        </mxCell>
        <mxCell id="EUu6mg04dgHktvgB9pTH-109" value="&lt;span style=&quot;border-color: var(--border-color); color: rgb(51, 51, 255); font-family: Helvetica; font-size: 12px; font-style: normal; font-variant-ligatures: normal; font-variant-caps: normal; font-weight: 400; letter-spacing: normal; orphans: 2; text-indent: 0px; text-transform: none; widows: 2; word-spacing: 0px; -webkit-text-stroke-width: 0px; text-decoration-thickness: initial; text-decoration-style: initial; text-decoration-color: initial; text-align: left; background-color: rgb(255, 255, 255);&quot;&gt;&lt;font style=&quot;border-color: var(--border-color); font-size: 12px;&quot;&gt;&lt;i style=&quot;border-color: var(--border-color);&quot;&gt;y&lt;/i&gt;&lt;/font&gt;&lt;/span&gt;" style="text;whiteSpace=wrap;html=1;fontSize=12;fontFamily=Helvetica;fontColor=#3333FF;" parent="1" vertex="1">
          <mxGeometry x="1430" y="459.3399999999999" width="16" height="20" as="geometry" />
        </mxCell>
        <mxCell id="EUu6mg04dgHktvgB9pTH-114" value="&lt;b&gt;&lt;font style=&quot;font-size: 16px&quot;&gt;Control Signals&lt;/font&gt;&lt;/b&gt;" style="text;html=1;align=center;verticalAlign=middle;resizable=0;points=[];autosize=1;strokeColor=none;fillColor=none;strokeWidth=1;" parent="1" vertex="1">
          <mxGeometry x="920" y="40" width="140" height="30" as="geometry" />
        </mxCell>
        <mxCell id="qbNMRIMEjZ6maihlZpFf-6" value="" style="triangle;whiteSpace=wrap;html=1;fillColor=none;rotation=90;strokeColor=#3333FF;fontColor=#3333FF;" parent="1" vertex="1">
          <mxGeometry x="1135" y="350" width="10" height="10.25" as="geometry" />
        </mxCell>
        <mxCell id="qbNMRIMEjZ6maihlZpFf-7" value="" style="endArrow=none;html=1;rounded=0;strokeColor=#3333FF;fontColor=#3333FF;entryX=-0.037;entryY=0.549;entryDx=0;entryDy=0;entryPerimeter=0;" parent="1" target="qbNMRIMEjZ6maihlZpFf-6" edge="1">
          <mxGeometry width="50" height="50" relative="1" as="geometry">
            <mxPoint x="1340" y="150" as="sourcePoint" />
            <mxPoint x="1220" y="340" as="targetPoint" />
            <Array as="points">
              <mxPoint x="1140" y="150" />
            </Array>
          </mxGeometry>
        </mxCell>
        <mxCell id="qbNMRIMEjZ6maihlZpFf-9" value="" style="triangle;whiteSpace=wrap;html=1;fillColor=none;rotation=0;strokeColor=#3333FF;fontColor=#3333FF;" parent="1" vertex="1">
          <mxGeometry x="1240" y="444.74" width="10" height="10.25" as="geometry" />
        </mxCell>
        <mxCell id="qbNMRIMEjZ6maihlZpFf-10" value="" style="endArrow=none;html=1;rounded=0;strokeColor=#3333FF;fontColor=#3333FF;entryX=1.075;entryY=0.5;entryDx=0;entryDy=0;entryPerimeter=0;exitX=0.03;exitY=0.5;exitDx=0;exitDy=0;exitPerimeter=0;" parent="1" source="qbNMRIMEjZ6maihlZpFf-12" target="qbNMRIMEjZ6maihlZpFf-9" edge="1">
          <mxGeometry width="50" height="50" relative="1" as="geometry">
            <mxPoint x="1190" y="540.25" as="sourcePoint" />
            <mxPoint x="1219" y="480.25825" as="targetPoint" />
            <Array as="points">
              <mxPoint x="1420" y="560" />
              <mxPoint x="1300" y="560" />
              <mxPoint x="1300" y="450.25" />
            </Array>
          </mxGeometry>
        </mxCell>
        <mxCell id="qbNMRIMEjZ6maihlZpFf-11" value="&lt;span style=&quot;border-color: var(--border-color); color: rgb(51, 51, 255); font-family: Helvetica; font-size: 12px; font-variant-ligatures: normal; font-variant-caps: normal; font-weight: 400; letter-spacing: normal; orphans: 2; text-indent: 0px; text-transform: none; widows: 2; word-spacing: 0px; -webkit-text-stroke-width: 0px; text-decoration-thickness: initial; text-decoration-style: initial; text-decoration-color: initial; text-align: left; background-color: rgb(255, 255, 255);&quot;&gt;&lt;font style=&quot;border-color: var(--border-color); font-size: 12px;&quot;&gt;&lt;i style=&quot;border-color: var(--border-color);&quot;&gt;ṁ&lt;/i&gt;&lt;span style=&quot;border-color: var(--border-color);&quot;&gt;&lt;sub&gt;val&lt;/sub&gt;&lt;/span&gt;&lt;/font&gt;&lt;/span&gt;" style="text;whiteSpace=wrap;html=1;fontSize=12;fontFamily=Helvetica;fontColor=#3333FF;" parent="1" vertex="1">
          <mxGeometry x="1425" y="554.25" width="20" height="20" as="geometry" />
        </mxCell>
        <mxCell id="qbNMRIMEjZ6maihlZpFf-12" value="" style="triangle;whiteSpace=wrap;html=1;fillColor=none;rotation=90;strokeColor=#3333FF;fontColor=#3333FF;" parent="1" vertex="1">
          <mxGeometry x="1415" y="570" width="10" height="10.25" as="geometry" />
        </mxCell>
        <mxCell id="qbNMRIMEjZ6maihlZpFf-16" value="Chiller 1" style="rounded=0;whiteSpace=wrap;html=1;strokeWidth=2;" parent="1" vertex="1">
          <mxGeometry x="1179.84" y="220" width="40" height="40" as="geometry" />
        </mxCell>
        <mxCell id="qbNMRIMEjZ6maihlZpFf-17" value="Chiller 2" style="rounded=0;whiteSpace=wrap;html=1;strokeWidth=2;" parent="1" vertex="1">
          <mxGeometry x="1040" y="619.76" width="40" height="40" as="geometry" />
        </mxCell>
        <mxCell id="qbNMRIMEjZ6maihlZpFf-18" value="P&lt;sub&gt;pri&lt;/sub&gt;" style="text;html=1;align=center;verticalAlign=middle;resizable=0;points=[];autosize=1;strokeColor=none;fillColor=none;" parent="1" vertex="1">
          <mxGeometry x="1160" y="575.25" width="40" height="30" as="geometry" />
        </mxCell>
        <mxCell id="qbNMRIMEjZ6maihlZpFf-19" value="P&lt;sub&gt;sec&lt;/sub&gt;" style="text;html=1;align=center;verticalAlign=middle;resizable=0;points=[];autosize=1;strokeColor=none;fillColor=none;" parent="1" vertex="1">
          <mxGeometry x="1395" y="534.25" width="50" height="30" as="geometry" />
        </mxCell>
        <mxCell id="qbNMRIMEjZ6maihlZpFf-20" value="If plant 2 is producing CHW,&lt;br&gt;P&lt;sub&gt;sec&lt;/sub&gt;&amp;nbsp;uses&amp;nbsp;the same &lt;i&gt;y&lt;/i&gt; signal with P1;&lt;br&gt;Otherwise, &lt;i&gt;y&lt;/i&gt; = 0." style="text;html=1;strokeColor=none;fillColor=none;align=left;verticalAlign=middle;whiteSpace=wrap;rounded=0;fontColor=#3333FF;" parent="1" vertex="1">
          <mxGeometry x="1247.25" y="378.07" width="198.75" height="49.75" as="geometry" />
        </mxCell>
        <mxCell id="cwQXnEI9I7Ugpv4NzCKq-13" value="" style="rounded=0;whiteSpace=wrap;html=1;" parent="1" vertex="1">
          <mxGeometry x="1320" y="504.88" width="40" height="30" as="geometry" />
        </mxCell>
        <mxCell id="cwQXnEI9I7Ugpv4NzCKq-14" value="" style="endArrow=none;html=1;rounded=0;" parent="1" edge="1">
          <mxGeometry width="50" height="50" relative="1" as="geometry">
            <mxPoint x="1360" y="535.37" as="sourcePoint" />
            <mxPoint x="1320" y="505.37" as="targetPoint" />
          </mxGeometry>
        </mxCell>
        <mxCell id="cwQXnEI9I7Ugpv4NzCKq-15" value="" style="ellipse;whiteSpace=wrap;html=1;aspect=fixed;fillColor=#000000;fillStyle=solid;" parent="1" vertex="1">
          <mxGeometry x="1315" y="500.25" width="10" height="10" as="geometry" />
        </mxCell>
        <mxCell id="cwQXnEI9I7Ugpv4NzCKq-16" value="" style="endArrow=classic;html=1;rounded=0;strokeWidth=1;" parent="1" edge="1">
          <mxGeometry width="50" height="50" relative="1" as="geometry">
            <mxPoint x="1320" y="545.37" as="sourcePoint" />
            <mxPoint x="1360" y="545.37" as="targetPoint" />
            <Array as="points" />
          </mxGeometry>
        </mxCell>
        <mxCell id="cwQXnEI9I7Ugpv4NzCKq-18" value="Check valve" style="text;html=1;align=center;verticalAlign=middle;resizable=0;points=[];autosize=1;strokeColor=none;fillColor=none;" parent="1" vertex="1">
          <mxGeometry x="1296" y="475.2499999999999" width="90" height="30" as="geometry" />
        </mxCell>
        <mxCell id="cwQXnEI9I7Ugpv4NzCKq-19" value="" style="triangle;whiteSpace=wrap;html=1;fillColor=none;rotation=0;strokeColor=#3333FF;fontColor=#3333FF;" parent="1" vertex="1">
          <mxGeometry x="1060" y="404.62" width="10" height="10.25" as="geometry" />
        </mxCell>
        <mxCell id="cwQXnEI9I7Ugpv4NzCKq-21" value="" style="endArrow=none;html=1;rounded=0;strokeColor=#3333FF;fontColor=#3333FF;exitX=0.95;exitY=0.525;exitDx=0;exitDy=0;exitPerimeter=0;" parent="1" source="cwQXnEI9I7Ugpv4NzCKq-19" edge="1">
          <mxGeometry width="50" height="50" relative="1" as="geometry">
            <mxPoint x="1090" y="410.62" as="sourcePoint" />
            <mxPoint x="1110" y="410" as="targetPoint" />
          </mxGeometry>
        </mxCell>
        <mxCell id="cwQXnEI9I7Ugpv4NzCKq-22" value="" style="endArrow=none;html=1;rounded=0;strokeColor=#3333FF;fontColor=#3333FF;exitX=0.9;exitY=0.513;exitDx=0;exitDy=0;exitPerimeter=0;" parent="1" source="EUu6mg04dgHktvgB9pTH-91" edge="1">
          <mxGeometry width="50" height="50" relative="1" as="geometry">
            <mxPoint x="1090" y="430.25" as="sourcePoint" />
            <mxPoint x="1110" y="430" as="targetPoint" />
          </mxGeometry>
        </mxCell>
        <mxCell id="cwQXnEI9I7Ugpv4NzCKq-23" value="Flow Control" style="text;html=1;strokeColor=none;fillColor=none;align=center;verticalAlign=middle;whiteSpace=wrap;rounded=0;fontColor=#3333FF;" parent="1" vertex="1">
          <mxGeometry x="1120" y="449.34000000000003" width="45" height="30" as="geometry" />
        </mxCell>
        <mxCell id="cwQXnEI9I7Ugpv4NzCKq-24" value="&lt;font style=&quot;font-size: 12px;&quot;&gt;Switch&lt;/font&gt;" style="whiteSpace=wrap;html=1;aspect=fixed;fillColor=none;strokeColor=#3333FF;fontColor=#3333FF;" parent="1" vertex="1">
          <mxGeometry x="1170.15" y="378.13000000000005" width="49.69" height="49.69" as="geometry" />
        </mxCell>
        <mxCell id="cwQXnEI9I7Ugpv4NzCKq-25" value="" style="endArrow=none;html=1;rounded=0;strokeColor=#3333FF;fontColor=#3333FF;dashed=1;exitX=1.138;exitY=0.549;exitDx=0;exitDy=0;exitPerimeter=0;" parent="1" source="qbNMRIMEjZ6maihlZpFf-6" edge="1">
          <mxGeometry width="50" height="50" relative="1" as="geometry">
            <mxPoint x="1140" y="370.25" as="sourcePoint" />
            <mxPoint x="1170" y="410" as="targetPoint" />
            <Array as="points">
              <mxPoint x="1140" y="410" />
            </Array>
          </mxGeometry>
        </mxCell>
        <mxCell id="NfkfM8riDZQN8jS3ffes-1" value="" style="ellipse;whiteSpace=wrap;html=1;fontSize=16;strokeWidth=1;" parent="1" vertex="1">
          <mxGeometry x="1240" y="178.9999999999999" width="40" height="40" as="geometry" />
        </mxCell>
        <mxCell id="NfkfM8riDZQN8jS3ffes-2" value="" style="triangle;whiteSpace=wrap;html=1;fontSize=16;strokeWidth=1;rotation=0;fillColor=#000000;" parent="1" vertex="1">
          <mxGeometry x="1260" y="180" width="18" height="40" as="geometry" />
        </mxCell>
        <mxCell id="NfkfM8riDZQN8jS3ffes-3" value="" style="endArrow=none;html=1;rounded=0;" parent="1" edge="1">
          <mxGeometry width="50" height="50" relative="1" as="geometry">
            <mxPoint x="1300" y="280" as="sourcePoint" />
            <mxPoint x="1300" y="200" as="targetPoint" />
          </mxGeometry>
        </mxCell>
        <mxCell id="NfkfM8riDZQN8jS3ffes-5" value="Implemented as&lt;br&gt;ideal component" style="text;html=1;align=left;verticalAlign=middle;resizable=0;points=[];autosize=1;strokeColor=none;fillColor=none;" parent="1" vertex="1">
          <mxGeometry x="1179.84" y="280.00000000000006" width="110" height="40" as="geometry" />
        </mxCell>
        <mxCell id="NfkfM8riDZQN8jS3ffes-6" value="Tank" style="rounded=0;whiteSpace=wrap;html=1;strokeWidth=2;" parent="1" vertex="1">
          <mxGeometry x="1160" y="619.76" width="40" height="40" as="geometry" />
        </mxCell>
        <mxCell id="w12513ni1vJL5LTuAko7-5" value="" style="whiteSpace=wrap;html=1;aspect=fixed;" parent="1" vertex="1">
          <mxGeometry x="1414.75" y="579.25" width="10.25" height="10.25" as="geometry" />
        </mxCell>
        <mxCell id="5xh_inwoW4JU_ySU2yKk-31" value="" style="endArrow=none;html=1;rounded=0;" parent="1" edge="1">
          <mxGeometry width="50" height="50" relative="1" as="geometry">
            <mxPoint x="1520.87" y="560.39" as="sourcePoint" />
            <mxPoint x="1460" y="560" as="targetPoint" />
          </mxGeometry>
        </mxCell>
        <mxCell id="5xh_inwoW4JU_ySU2yKk-32" value="" style="ellipse;whiteSpace=wrap;html=1;aspect=fixed;strokeColor=none;" parent="1" vertex="1">
          <mxGeometry x="1510.87" y="269.37" width="20" height="20" as="geometry" />
        </mxCell>
        <mxCell id="5xh_inwoW4JU_ySU2yKk-33" value="" style="ellipse;whiteSpace=wrap;html=1;aspect=fixed;strokeColor=none;" parent="1" vertex="1">
          <mxGeometry x="1510.87" y="710" width="20" height="20" as="geometry" />
        </mxCell>
        <mxCell id="5xh_inwoW4JU_ySU2yKk-34" value="" style="endArrow=baseDash;html=1;rounded=0;strokeWidth=3;startArrow=baseDash;startFill=0;endFill=0;" parent="1" edge="1">
          <mxGeometry width="50" height="50" relative="1" as="geometry">
            <mxPoint x="1519.87" y="840" as="sourcePoint" />
            <mxPoint x="1519.87" y="70" as="targetPoint" />
          </mxGeometry>
        </mxCell>
        <mxCell id="5xh_inwoW4JU_ySU2yKk-35" value="" style="endArrow=none;html=1;rounded=0;" parent="1" edge="1">
          <mxGeometry width="50" height="50" relative="1" as="geometry">
            <mxPoint x="1679.87" y="120" as="sourcePoint" />
            <mxPoint x="1519.87" y="120.25" as="targetPoint" />
          </mxGeometry>
        </mxCell>
        <mxCell id="5xh_inwoW4JU_ySU2yKk-36" value="" style="endArrow=none;html=1;rounded=0;" parent="1" edge="1">
          <mxGeometry width="50" height="50" relative="1" as="geometry">
            <mxPoint x="1679.87" y="160" as="sourcePoint" />
            <mxPoint x="1559.87" y="160.25" as="targetPoint" />
          </mxGeometry>
        </mxCell>
        <mxCell id="5xh_inwoW4JU_ySU2yKk-37" value="" style="ellipse;whiteSpace=wrap;html=1;aspect=fixed;strokeColor=none;" parent="1" vertex="1">
          <mxGeometry x="1549.87" y="110.25" width="20" height="20" as="geometry" />
        </mxCell>
        <mxCell id="5xh_inwoW4JU_ySU2yKk-39" value="Supply" style="text;html=1;align=center;verticalAlign=middle;resizable=0;points=[];autosize=1;strokeColor=none;fillColor=none;" parent="1" vertex="1">
          <mxGeometry x="1480" y="40" width="60" height="30" as="geometry" />
        </mxCell>
        <mxCell id="5xh_inwoW4JU_ySU2yKk-40" value="Return" style="text;html=1;align=center;verticalAlign=middle;resizable=0;points=[];autosize=1;strokeColor=none;fillColor=none;" parent="1" vertex="1">
          <mxGeometry x="1539.87" y="40" width="60" height="30" as="geometry" />
        </mxCell>
        <mxCell id="5xh_inwoW4JU_ySU2yKk-41" value="" style="triangle;whiteSpace=wrap;html=1;fontSize=16;strokeWidth=1;rotation=0;" parent="1" vertex="1">
          <mxGeometry x="1599.87" y="107.75" width="20" height="25" as="geometry" />
        </mxCell>
        <mxCell id="5xh_inwoW4JU_ySU2yKk-42" value="" style="triangle;whiteSpace=wrap;html=1;fontSize=16;strokeWidth=1;rotation=-180;" parent="1" vertex="1">
          <mxGeometry x="1620.3699999999997" y="107.75" width="20" height="25" as="geometry" />
        </mxCell>
        <mxCell id="5xh_inwoW4JU_ySU2yKk-43" value="" style="endArrow=none;html=1;rounded=0;entryX=0.993;entryY=0.507;entryDx=0;entryDy=0;entryPerimeter=0;" parent="1" target="5xh_inwoW4JU_ySU2yKk-41" edge="1">
          <mxGeometry width="50" height="50" relative="1" as="geometry">
            <mxPoint x="1619.87" y="110" as="sourcePoint" />
            <mxPoint x="1389.87" y="230" as="targetPoint" />
          </mxGeometry>
        </mxCell>
        <mxCell id="5xh_inwoW4JU_ySU2yKk-44" value="" style="endArrow=none;html=1;rounded=0;" parent="1" edge="1">
          <mxGeometry width="50" height="50" relative="1" as="geometry">
            <mxPoint x="1680.87" y="479.37" as="sourcePoint" />
            <mxPoint x="1520.87" y="479.62" as="targetPoint" />
          </mxGeometry>
        </mxCell>
        <mxCell id="5xh_inwoW4JU_ySU2yKk-45" value="" style="endArrow=none;html=1;rounded=0;" parent="1" edge="1">
          <mxGeometry width="50" height="50" relative="1" as="geometry">
            <mxPoint x="1680.87" y="519.37" as="sourcePoint" />
            <mxPoint x="1560.87" y="519.62" as="targetPoint" />
          </mxGeometry>
        </mxCell>
        <mxCell id="5xh_inwoW4JU_ySU2yKk-46" value="" style="ellipse;whiteSpace=wrap;html=1;aspect=fixed;strokeColor=none;" parent="1" vertex="1">
          <mxGeometry x="1550.87" y="469.62" width="20" height="20" as="geometry" />
        </mxCell>
        <mxCell id="5xh_inwoW4JU_ySU2yKk-48" value="" style="triangle;whiteSpace=wrap;html=1;fontSize=16;strokeWidth=1;rotation=0;" parent="1" vertex="1">
          <mxGeometry x="1600.87" y="467.12" width="20" height="25" as="geometry" />
        </mxCell>
        <mxCell id="5xh_inwoW4JU_ySU2yKk-49" value="" style="triangle;whiteSpace=wrap;html=1;fontSize=16;strokeWidth=1;rotation=-180;" parent="1" vertex="1">
          <mxGeometry x="1621.3699999999997" y="467.12" width="20" height="25" as="geometry" />
        </mxCell>
        <mxCell id="5xh_inwoW4JU_ySU2yKk-50" value="" style="endArrow=none;html=1;rounded=0;entryX=0.993;entryY=0.507;entryDx=0;entryDy=0;entryPerimeter=0;" parent="1" target="5xh_inwoW4JU_ySU2yKk-48" edge="1">
          <mxGeometry width="50" height="50" relative="1" as="geometry">
            <mxPoint x="1620.87" y="469.37" as="sourcePoint" />
            <mxPoint x="1390.87" y="589.37" as="targetPoint" />
          </mxGeometry>
        </mxCell>
        <mxCell id="5xh_inwoW4JU_ySU2yKk-51" value="" style="endArrow=none;html=1;rounded=0;" parent="1" edge="1">
          <mxGeometry width="50" height="50" relative="1" as="geometry">
            <mxPoint x="1680.87" y="760.41" as="sourcePoint" />
            <mxPoint x="1520.87" y="760.66" as="targetPoint" />
          </mxGeometry>
        </mxCell>
        <mxCell id="5xh_inwoW4JU_ySU2yKk-52" value="" style="endArrow=none;html=1;rounded=0;" parent="1" edge="1">
          <mxGeometry width="50" height="50" relative="1" as="geometry">
            <mxPoint x="1680.87" y="800.41" as="sourcePoint" />
            <mxPoint x="1560.87" y="800.66" as="targetPoint" />
          </mxGeometry>
        </mxCell>
        <mxCell id="5xh_inwoW4JU_ySU2yKk-53" value="" style="ellipse;whiteSpace=wrap;html=1;aspect=fixed;strokeColor=none;" parent="1" vertex="1">
          <mxGeometry x="1550.87" y="750.66" width="20" height="20" as="geometry" />
        </mxCell>
        <mxCell id="5xh_inwoW4JU_ySU2yKk-55" value="" style="triangle;whiteSpace=wrap;html=1;fontSize=16;strokeWidth=1;rotation=0;" parent="1" vertex="1">
          <mxGeometry x="1600.87" y="748.16" width="20" height="25" as="geometry" />
        </mxCell>
        <mxCell id="5xh_inwoW4JU_ySU2yKk-56" value="" style="triangle;whiteSpace=wrap;html=1;fontSize=16;strokeWidth=1;rotation=-180;" parent="1" vertex="1">
          <mxGeometry x="1621.3699999999997" y="748.16" width="20" height="25" as="geometry" />
        </mxCell>
        <mxCell id="5xh_inwoW4JU_ySU2yKk-57" value="" style="endArrow=none;html=1;rounded=0;entryX=0.993;entryY=0.507;entryDx=0;entryDy=0;entryPerimeter=0;" parent="1" target="5xh_inwoW4JU_ySU2yKk-55" edge="1">
          <mxGeometry width="50" height="50" relative="1" as="geometry">
            <mxPoint x="1620.87" y="750.41" as="sourcePoint" />
            <mxPoint x="1390.87" y="870.4100000000001" as="targetPoint" />
          </mxGeometry>
        </mxCell>
        <mxCell id="5xh_inwoW4JU_ySU2yKk-58" value="" style="endArrow=baseDash;html=1;rounded=0;strokeWidth=3;startArrow=baseDash;startFill=0;endFill=0;" parent="1" edge="1">
          <mxGeometry width="50" height="50" relative="1" as="geometry">
            <mxPoint x="1560.87" y="840" as="sourcePoint" />
            <mxPoint x="1559.87" y="70" as="targetPoint" />
          </mxGeometry>
        </mxCell>
        <mxCell id="5xh_inwoW4JU_ySU2yKk-59" value="" style="whiteSpace=wrap;html=1;aspect=fixed;" parent="1" vertex="1">
          <mxGeometry x="1615.62" y="459.37" width="10.25" height="10.25" as="geometry" />
        </mxCell>
        <mxCell id="5xh_inwoW4JU_ySU2yKk-60" value="" style="whiteSpace=wrap;html=1;aspect=fixed;" parent="1" vertex="1">
          <mxGeometry x="1614.87" y="100" width="10.25" height="10.25" as="geometry" />
        </mxCell>
        <mxCell id="5xh_inwoW4JU_ySU2yKk-61" value="" style="whiteSpace=wrap;html=1;aspect=fixed;" parent="1" vertex="1">
          <mxGeometry x="1615.87" y="740.41" width="10.25" height="10.25" as="geometry" />
        </mxCell>
        <mxCell id="5xh_inwoW4JU_ySU2yKk-64" value="" style="endArrow=none;dashed=1;html=1;rounded=0;entryX=-0.025;entryY=0.488;entryDx=0;entryDy=0;entryPerimeter=0;strokeColor=#3333FF;" parent="1" target="EUu6mg04dgHktvgB9pTH-86" edge="1">
          <mxGeometry width="50" height="50" relative="1" as="geometry">
            <mxPoint x="1220" y="410" as="sourcePoint" />
            <mxPoint x="1340" y="350" as="targetPoint" />
          </mxGeometry>
        </mxCell>
        <mxCell id="5xh_inwoW4JU_ySU2yKk-65" value="&lt;font color=&quot;#3333ff&quot;&gt;Δ&lt;i&gt;p&lt;/i&gt;&lt;/font&gt;" style="endArrow=none;dashed=1;html=1;rounded=0;strokeColor=#3333FF;" parent="1" source="5xh_inwoW4JU_ySU2yKk-66" edge="1">
          <mxGeometry x="-0.0063" y="10" width="50" height="50" relative="1" as="geometry">
            <mxPoint x="1614.87" y="200" as="sourcePoint" />
            <mxPoint x="1654.87" y="150" as="targetPoint" />
            <mxPoint as="offset" />
          </mxGeometry>
        </mxCell>
        <mxCell id="5xh_inwoW4JU_ySU2yKk-66" value="" style="triangle;whiteSpace=wrap;html=1;fillColor=none;rotation=-90;strokeColor=#3333FF;fontColor=#3333FF;" parent="1" vertex="1">
          <mxGeometry x="1649.87" y="120" width="10" height="10.25" as="geometry" />
        </mxCell>
        <mxCell id="5xh_inwoW4JU_ySU2yKk-69" value="" style="triangle;whiteSpace=wrap;html=1;fillColor=none;rotation=90;strokeColor=#3333FF;fontColor=#3333FF;" parent="1" vertex="1">
          <mxGeometry x="1649.87" y="150" width="10" height="10.25" as="geometry" />
        </mxCell>
        <mxCell id="5xh_inwoW4JU_ySU2yKk-70" value="&lt;font color=&quot;#3333ff&quot;&gt;Δ&lt;i&gt;p&lt;/i&gt;&lt;/font&gt;" style="endArrow=none;dashed=1;html=1;rounded=0;strokeColor=#3333FF;" parent="1" source="5xh_inwoW4JU_ySU2yKk-71" edge="1">
          <mxGeometry x="-0.0063" y="10" width="50" height="50" relative="1" as="geometry">
            <mxPoint x="1614.87" y="559.25" as="sourcePoint" />
            <mxPoint x="1654.87" y="509.25" as="targetPoint" />
            <mxPoint as="offset" />
          </mxGeometry>
        </mxCell>
        <mxCell id="5xh_inwoW4JU_ySU2yKk-71" value="" style="triangle;whiteSpace=wrap;html=1;fillColor=none;rotation=-90;strokeColor=#3333FF;fontColor=#3333FF;" parent="1" vertex="1">
          <mxGeometry x="1649.87" y="479.25" width="10" height="10.25" as="geometry" />
        </mxCell>
        <mxCell id="5xh_inwoW4JU_ySU2yKk-72" value="" style="triangle;whiteSpace=wrap;html=1;fillColor=none;rotation=90;strokeColor=#3333FF;fontColor=#3333FF;" parent="1" vertex="1">
          <mxGeometry x="1649.87" y="509.25" width="10" height="10.25" as="geometry" />
        </mxCell>
        <mxCell id="5xh_inwoW4JU_ySU2yKk-73" value="&lt;font color=&quot;#3333ff&quot;&gt;Δ&lt;i&gt;p&lt;/i&gt;&lt;/font&gt;" style="endArrow=none;dashed=1;html=1;rounded=0;strokeColor=#3333FF;" parent="1" source="5xh_inwoW4JU_ySU2yKk-74" edge="1">
          <mxGeometry x="-0.0063" y="10" width="50" height="50" relative="1" as="geometry">
            <mxPoint x="1614.87" y="840" as="sourcePoint" />
            <mxPoint x="1654.87" y="790" as="targetPoint" />
            <mxPoint as="offset" />
          </mxGeometry>
        </mxCell>
        <mxCell id="5xh_inwoW4JU_ySU2yKk-74" value="" style="triangle;whiteSpace=wrap;html=1;fillColor=none;rotation=-90;strokeColor=#3333FF;fontColor=#3333FF;" parent="1" vertex="1">
          <mxGeometry x="1649.87" y="760" width="10" height="10.25" as="geometry" />
        </mxCell>
        <mxCell id="5xh_inwoW4JU_ySU2yKk-75" value="" style="triangle;whiteSpace=wrap;html=1;fillColor=none;rotation=90;strokeColor=#3333FF;fontColor=#3333FF;" parent="1" vertex="1">
          <mxGeometry x="1649.87" y="790" width="10" height="10.25" as="geometry" />
        </mxCell>
        <mxCell id="5xh_inwoW4JU_ySU2yKk-76" value="To user" style="text;html=1;align=center;verticalAlign=middle;resizable=0;points=[];autosize=1;strokeColor=none;fillColor=none;" parent="1" vertex="1">
          <mxGeometry x="1619.87" y="160.25" width="60" height="30" as="geometry" />
        </mxCell>
        <mxCell id="5xh_inwoW4JU_ySU2yKk-77" value="To user" style="text;html=1;align=center;verticalAlign=middle;resizable=0;points=[];autosize=1;strokeColor=none;fillColor=none;" parent="1" vertex="1">
          <mxGeometry x="1619.87" y="519.5" width="60" height="30" as="geometry" />
        </mxCell>
        <mxCell id="5xh_inwoW4JU_ySU2yKk-78" value="To user" style="text;html=1;align=center;verticalAlign=middle;resizable=0;points=[];autosize=1;strokeColor=none;fillColor=none;" parent="1" vertex="1">
          <mxGeometry x="1619.87" y="800.25" width="60" height="30" as="geometry" />
        </mxCell>
        <mxCell id="GQwlBKBxIzU2rrclb5-g-1" value="&lt;font color=&quot;#3333ff&quot;&gt;Δ&lt;i&gt;p&lt;/i&gt;&lt;/font&gt;" style="endArrow=none;dashed=1;html=1;rounded=0;strokeColor=#3333FF;entryX=-0.072;entryY=0.5;entryDx=0;entryDy=0;entryPerimeter=0;" parent="1" source="GQwlBKBxIzU2rrclb5-g-2" target="GQwlBKBxIzU2rrclb5-g-3" edge="1">
          <mxGeometry x="-0.0063" y="10" width="50" height="50" relative="1" as="geometry">
            <mxPoint x="1455" y="639.33" as="sourcePoint" />
            <mxPoint x="1495" y="589.33" as="targetPoint" />
            <mxPoint as="offset" />
          </mxGeometry>
        </mxCell>
        <mxCell id="GQwlBKBxIzU2rrclb5-g-2" value="" style="triangle;whiteSpace=wrap;html=1;fillColor=none;rotation=-90;strokeColor=#3333FF;fontColor=#3333FF;" parent="1" vertex="1">
          <mxGeometry x="1490" y="559.33" width="10" height="10.25" as="geometry" />
        </mxCell>
        <mxCell id="GQwlBKBxIzU2rrclb5-g-3" value="" style="triangle;whiteSpace=wrap;html=1;fillColor=none;rotation=90;strokeColor=#3333FF;fontColor=#3333FF;" parent="1" vertex="1">
          <mxGeometry x="1490" y="709.34" width="10" height="10.25" as="geometry" />
        </mxCell>
        <mxCell id="PYCVDJ6xZcprUKnse3K--1" value="The pressure head signal from the storage plant is only used when it is in remote charging mode." style="text;html=1;strokeColor=none;fillColor=none;align=left;verticalAlign=middle;whiteSpace=wrap;rounded=0;fontColor=#3333FF;" parent="1" vertex="1">
          <mxGeometry x="1569.87" y="584.33" width="80.13" height="139.99" as="geometry" />
        </mxCell>
      </root>
    </mxGraphModel>
  </diagram>
</mxfile>
